<svg xmlns="http://www.w3.org/2000/svg" width="121.59" height="35" viewBox="0 0 121.59 35"><rect class="svg__rect" x="0" y="0" width="82.05" height="35" fill="#31C4F3"/><rect class="svg__rect" x="80.05" y="0" width="41.540000000000006" height="35" fill="#389AD5"/><path class="svg__text" d="M19.57 22L14.22 22L14.22 13.47L15.70 13.47L15.70 20.82L19.57 20.82L19.57 22ZM25.26 22L23.79 22L23.79 13.47L25.26 13.47L25.26 22ZM31.56 22L30.07 22L30.07 13.47L31.56 13.47L35.37 19.54L35.37 13.47L36.84 13.47L36.84 22L35.36 22L31.56 15.95L31.56 22ZM43.06 22L41.58 22L41.58 13.47L43.06 13.47L43.06 17.47L43.88 16.46L46.38 13.47L48.17 13.47L45.00 17.25L48.35 22L46.60 22L44.03 18.31L43.06 19.34L43.06 22ZM57.71 22L52.13 22L52.13 13.47L57.67 13.47L57.67 14.66L53.62 14.66L53.62 17.02L57.12 17.02L57.12 18.19L53.62 18.19L53.62 20.82L57.71 20.82L57.71 22ZM64.36 22L61.91 22L61.91 13.47L64.43 13.47Q65.56 13.47 66.43 13.97Q67.31 14.48 67.79 15.40Q68.27 16.33 68.27 17.52L68.27 17.52L68.27 17.95Q68.27 19.16 67.79 20.08Q67.30 21.00 66.41 21.50Q65.52 22 64.36 22L64.36 22ZM63.39 14.66L63.39 20.82L64.36 20.82Q65.52 20.82 66.15 20.09Q66.77 19.36 66.78 17.99L66.78 17.99L66.78 17.52Q66.78 16.13 66.18 15.40Q65.57 14.66 64.43 14.66L64.43 14.66L63.39 14.66Z" fill="#FFFFFF"/><path class="svg__text" d="M96.62 22L94.24 22L94.24 13.60L96.62 13.60L96.62 22ZM104.12 22L101.79 22L101.79 13.60L103.75 13.60L107.46 18.07L107.46 13.60L109.78 13.60L109.78 22L107.83 22L104.12 17.52L104.12 22Z" fill="#FFFFFF" x="93.05"/></svg>